%TF.GenerationSoftware,KiCad,Pcbnew,8.0.9*%
%TF.CreationDate,2026-08-02T14:26:52+09:00*%
%TF.ProjectId,tag_atmega328,7461675f-6174-46d6-9567-613332382e6b,rev?*%
%TF.SameCoordinates,Original*%
%TF.FileFunction,Drillmap*%
%TF.FilePolarity,Positive*%
%FSLAX45Y45*%
G04 Gerber Fmt 4.5, Leading zero omitted, Abs format (unit mm)*
G04 Created by KiCad (PCBNEW 8.0.9) date 2026-08-02 14:26:52*
%MOMM*%
%LPD*%
G01*
G04 APERTURE LIST*
%ADD10C,0.050000*%
%ADD11C,0.200000*%
G04 APERTURE END LIST*
D10*
X6350000Y-8250000D02*
X9350000Y-8250000D01*
X9350000Y-11250000D01*
X6350000Y-11250000D01*
X6350000Y-8250000D01*
D11*
X6608277Y-11563984D02*
X6608277Y-11363984D01*
X6608277Y-11363984D02*
X6655896Y-11363984D01*
X6655896Y-11363984D02*
X6684467Y-11373508D01*
X6684467Y-11373508D02*
X6703515Y-11392555D01*
X6703515Y-11392555D02*
X6713039Y-11411603D01*
X6713039Y-11411603D02*
X6722562Y-11449698D01*
X6722562Y-11449698D02*
X6722562Y-11478269D01*
X6722562Y-11478269D02*
X6713039Y-11516365D01*
X6713039Y-11516365D02*
X6703515Y-11535412D01*
X6703515Y-11535412D02*
X6684467Y-11554460D01*
X6684467Y-11554460D02*
X6655896Y-11563984D01*
X6655896Y-11563984D02*
X6608277Y-11563984D01*
X6808277Y-11563984D02*
X6808277Y-11430650D01*
X6808277Y-11468746D02*
X6817801Y-11449698D01*
X6817801Y-11449698D02*
X6827324Y-11440174D01*
X6827324Y-11440174D02*
X6846372Y-11430650D01*
X6846372Y-11430650D02*
X6865420Y-11430650D01*
X6932086Y-11563984D02*
X6932086Y-11430650D01*
X6932086Y-11363984D02*
X6922562Y-11373508D01*
X6922562Y-11373508D02*
X6932086Y-11383031D01*
X6932086Y-11383031D02*
X6941610Y-11373508D01*
X6941610Y-11373508D02*
X6932086Y-11363984D01*
X6932086Y-11363984D02*
X6932086Y-11383031D01*
X7055896Y-11563984D02*
X7036848Y-11554460D01*
X7036848Y-11554460D02*
X7027324Y-11535412D01*
X7027324Y-11535412D02*
X7027324Y-11363984D01*
X7160658Y-11563984D02*
X7141610Y-11554460D01*
X7141610Y-11554460D02*
X7132086Y-11535412D01*
X7132086Y-11535412D02*
X7132086Y-11363984D01*
X7389229Y-11563984D02*
X7389229Y-11363984D01*
X7389229Y-11363984D02*
X7455896Y-11506841D01*
X7455896Y-11506841D02*
X7522562Y-11363984D01*
X7522562Y-11363984D02*
X7522562Y-11563984D01*
X7703515Y-11563984D02*
X7703515Y-11459222D01*
X7703515Y-11459222D02*
X7693991Y-11440174D01*
X7693991Y-11440174D02*
X7674943Y-11430650D01*
X7674943Y-11430650D02*
X7636848Y-11430650D01*
X7636848Y-11430650D02*
X7617801Y-11440174D01*
X7703515Y-11554460D02*
X7684467Y-11563984D01*
X7684467Y-11563984D02*
X7636848Y-11563984D01*
X7636848Y-11563984D02*
X7617801Y-11554460D01*
X7617801Y-11554460D02*
X7608277Y-11535412D01*
X7608277Y-11535412D02*
X7608277Y-11516365D01*
X7608277Y-11516365D02*
X7617801Y-11497317D01*
X7617801Y-11497317D02*
X7636848Y-11487793D01*
X7636848Y-11487793D02*
X7684467Y-11487793D01*
X7684467Y-11487793D02*
X7703515Y-11478269D01*
X7798753Y-11430650D02*
X7798753Y-11630650D01*
X7798753Y-11440174D02*
X7817801Y-11430650D01*
X7817801Y-11430650D02*
X7855896Y-11430650D01*
X7855896Y-11430650D02*
X7874943Y-11440174D01*
X7874943Y-11440174D02*
X7884467Y-11449698D01*
X7884467Y-11449698D02*
X7893991Y-11468746D01*
X7893991Y-11468746D02*
X7893991Y-11525888D01*
X7893991Y-11525888D02*
X7884467Y-11544936D01*
X7884467Y-11544936D02*
X7874943Y-11554460D01*
X7874943Y-11554460D02*
X7855896Y-11563984D01*
X7855896Y-11563984D02*
X7817801Y-11563984D01*
X7817801Y-11563984D02*
X7798753Y-11554460D01*
X7979705Y-11544936D02*
X7989229Y-11554460D01*
X7989229Y-11554460D02*
X7979705Y-11563984D01*
X7979705Y-11563984D02*
X7970182Y-11554460D01*
X7970182Y-11554460D02*
X7979705Y-11544936D01*
X7979705Y-11544936D02*
X7979705Y-11563984D01*
X7979705Y-11440174D02*
X7989229Y-11449698D01*
X7989229Y-11449698D02*
X7979705Y-11459222D01*
X7979705Y-11459222D02*
X7970182Y-11449698D01*
X7970182Y-11449698D02*
X7979705Y-11440174D01*
X7979705Y-11440174D02*
X7979705Y-11459222D01*
M02*
