G04 #@! TF.GenerationSoftware,KiCad,Pcbnew,8.0.9*
G04 #@! TF.CreationDate,2026-08-02T14:26:51+09:00*
G04 #@! TF.ProjectId,tag_atmega328,7461675f-6174-46d6-9567-613332382e6b,rev?*
G04 #@! TF.SameCoordinates,Original*
G04 #@! TF.FileFunction,Copper,L2,Bot*
G04 #@! TF.FilePolarity,Positive*
%FSLAX46Y46*%
G04 Gerber Fmt 4.6, Leading zero omitted, Abs format (unit mm)*
G04 Created by KiCad (PCBNEW 8.0.9) date 2026-08-02 14:26:51*
%MOMM*%
%LPD*%
G01*
G04 APERTURE LIST*
G04 #@! TA.AperFunction,ComponentPad*
%ADD10R,1.700000X1.700000*%
G04 #@! TD*
G04 #@! TA.AperFunction,ComponentPad*
%ADD11O,1.700000X1.700000*%
G04 #@! TD*
G04 #@! TA.AperFunction,ViaPad*
%ADD12C,0.600000*%
G04 #@! TD*
G04 #@! TA.AperFunction,Conductor*
%ADD13C,0.500000*%
G04 #@! TD*
G04 #@! TA.AperFunction,Conductor*
%ADD14C,0.300000*%
G04 #@! TD*
G04 #@! TA.AperFunction,Conductor*
%ADD15C,0.200000*%
G04 #@! TD*
G04 APERTURE END LIST*
D10*
G04 #@! TO.P,J2,1,Pin_1*
G04 #@! TO.N,/LTC5507_RFIN*
X75275000Y-84500000D03*
D11*
G04 #@! TO.P,J2,2,Pin_2*
G04 #@! TO.N,GND*
X72735000Y-84500000D03*
G04 #@! TD*
D10*
G04 #@! TO.P,J3,1,Pin_1*
G04 #@! TO.N,+3.3V*
X71130000Y-110000000D03*
D11*
G04 #@! TO.P,J3,2,Pin_2*
G04 #@! TO.N,GND*
X73670000Y-110000000D03*
G04 #@! TO.P,J3,3,Pin_3*
G04 #@! TO.N,/IO5*
X76210000Y-110000000D03*
G04 #@! TO.P,J3,4,Pin_4*
G04 #@! TO.N,/IO6*
X78750000Y-110000000D03*
G04 #@! TD*
D10*
G04 #@! TO.P,J1,1,Pin_1*
G04 #@! TO.N,Net-(J1-Pin_1)*
X65500000Y-89475000D03*
D11*
G04 #@! TO.P,J1,2,Pin_2*
G04 #@! TO.N,GND*
X65500000Y-86935000D03*
G04 #@! TD*
D12*
G04 #@! TO.N,+3.3V*
X86300000Y-102600000D03*
X83500000Y-102500000D03*
G04 #@! TO.N,GND*
X87000000Y-84000000D03*
X78800000Y-98400000D03*
X77000000Y-93500000D03*
X92300000Y-87300000D03*
X79000000Y-86000000D03*
X89373100Y-105304396D03*
X68900000Y-106700000D03*
X91100000Y-95100000D03*
X71000000Y-101000000D03*
X87732500Y-103832500D03*
X88761250Y-91395000D03*
X77000000Y-89900000D03*
X92300000Y-89800000D03*
X78100000Y-102100000D03*
X72900000Y-106700000D03*
X73000000Y-98250000D03*
X77600000Y-95000000D03*
X77600000Y-92000000D03*
X90800000Y-99600000D03*
X68900000Y-92800000D03*
X78100000Y-103400000D03*
X91200000Y-96200000D03*
X88300000Y-97100000D03*
X67500000Y-95700000D03*
X85836755Y-105888225D03*
X75500000Y-100750000D03*
X85250000Y-92000000D03*
X81250000Y-92000000D03*
X84100000Y-95300000D03*
X79500000Y-103400000D03*
X70300000Y-93500000D03*
X82000000Y-100900000D03*
X91600000Y-104000000D03*
X65000000Y-84000000D03*
X75500000Y-104600000D03*
X90500000Y-107100000D03*
X82300000Y-111200000D03*
X85900000Y-94000000D03*
X85200000Y-108100000D03*
X77000000Y-84000000D03*
X85300000Y-111200000D03*
X75500000Y-96500000D03*
X68800000Y-98300000D03*
X80000000Y-86000000D03*
X71000000Y-84000000D03*
X82500000Y-85700000D03*
X71000000Y-96250000D03*
X82000000Y-105900000D03*
X92000000Y-84000000D03*
X72000000Y-87000000D03*
X68200000Y-86000000D03*
X90800000Y-98500000D03*
X86600000Y-111200000D03*
X79500000Y-102100000D03*
X68000000Y-84000000D03*
X80900000Y-111200000D03*
X70200000Y-102000000D03*
X78800000Y-102750000D03*
X70000000Y-86000000D03*
X82000000Y-84000000D03*
X67000000Y-88000000D03*
G04 #@! TO.N,/BS_DATA_-*
X66650000Y-92950000D03*
X69300000Y-95400000D03*
G04 #@! TO.N,/MOSI*
X80088235Y-107511765D03*
X82600000Y-107511765D03*
G04 #@! TO.N,/RESET*
X80600000Y-98400000D03*
X81100000Y-100300000D03*
G04 #@! TO.N,/SDA*
X84400000Y-104700000D03*
X85700000Y-105100000D03*
G04 #@! TO.N,/SD(IO2)*
X76400000Y-98000000D03*
X78000000Y-96300000D03*
G04 #@! TD*
D13*
G04 #@! TO.N,+3.3V*
X83600000Y-102600000D02*
X86300000Y-102600000D01*
X83500000Y-102500000D02*
X83600000Y-102600000D01*
D14*
G04 #@! TO.N,/BS_DATA_-*
X66650000Y-92950000D02*
X69100000Y-95400000D01*
X69100000Y-95400000D02*
X69300000Y-95400000D01*
D15*
G04 #@! TO.N,/MOSI*
X82600000Y-107511765D02*
X80088235Y-107511765D01*
G04 #@! TO.N,/RESET*
X80600000Y-99800000D02*
X81100000Y-100300000D01*
X80600000Y-98400000D02*
X80600000Y-99800000D01*
G04 #@! TO.N,/SDA*
X84400000Y-104800000D02*
X84700000Y-105100000D01*
X84700000Y-105100000D02*
X85700000Y-105100000D01*
X84400000Y-104700000D02*
X84400000Y-104800000D01*
G04 #@! TO.N,/SD(IO2)*
X76400000Y-97900000D02*
X78000000Y-96300000D01*
X76400000Y-98000000D02*
X76400000Y-97900000D01*
G04 #@! TD*
G04 #@! TA.AperFunction,Conductor*
G04 #@! TO.N,GND*
G36*
X93242539Y-82720185D02*
G01*
X93288294Y-82772989D01*
X93299500Y-82824500D01*
X93299500Y-112175500D01*
X93279815Y-112242539D01*
X93227011Y-112288294D01*
X93175500Y-112299500D01*
X63824500Y-112299500D01*
X63757461Y-112279815D01*
X63711706Y-112227011D01*
X63700500Y-112175500D01*
X63700500Y-109102135D01*
X69779500Y-109102135D01*
X69779500Y-110897870D01*
X69779501Y-110897876D01*
X69785908Y-110957483D01*
X69836202Y-111092328D01*
X69836206Y-111092335D01*
X69922452Y-111207544D01*
X69922455Y-111207547D01*
X70037664Y-111293793D01*
X70037671Y-111293797D01*
X70172517Y-111344091D01*
X70172516Y-111344091D01*
X70179444Y-111344835D01*
X70232127Y-111350500D01*
X72027872Y-111350499D01*
X72087483Y-111344091D01*
X72222331Y-111293796D01*
X72337546Y-111207546D01*
X72423796Y-111092331D01*
X72473002Y-110960401D01*
X72514872Y-110904468D01*
X72580337Y-110880050D01*
X72648610Y-110894901D01*
X72676865Y-110916053D01*
X72798917Y-111038105D01*
X72992421Y-111173600D01*
X73206507Y-111273429D01*
X73206516Y-111273433D01*
X73420000Y-111330634D01*
X73420000Y-110433012D01*
X73477007Y-110465925D01*
X73604174Y-110500000D01*
X73735826Y-110500000D01*
X73862993Y-110465925D01*
X73920000Y-110433012D01*
X73920000Y-111330633D01*
X74133483Y-111273433D01*
X74133492Y-111273429D01*
X74347578Y-111173600D01*
X74541082Y-111038105D01*
X74708105Y-110871082D01*
X74838119Y-110685405D01*
X74892696Y-110641781D01*
X74962195Y-110634588D01*
X75024549Y-110666110D01*
X75041269Y-110685405D01*
X75171505Y-110871401D01*
X75338599Y-111038495D01*
X75435384Y-111106265D01*
X75532165Y-111174032D01*
X75532167Y-111174033D01*
X75532170Y-111174035D01*
X75746337Y-111273903D01*
X75974592Y-111335063D01*
X76151034Y-111350500D01*
X76209999Y-111355659D01*
X76210000Y-111355659D01*
X76210001Y-111355659D01*
X76268966Y-111350500D01*
X76445408Y-111335063D01*
X76673663Y-111273903D01*
X76887830Y-111174035D01*
X77081401Y-111038495D01*
X77248495Y-110871401D01*
X77378425Y-110685842D01*
X77433002Y-110642217D01*
X77502500Y-110635023D01*
X77564855Y-110666546D01*
X77581575Y-110685842D01*
X77711500Y-110871395D01*
X77711505Y-110871401D01*
X77878599Y-111038495D01*
X77975384Y-111106265D01*
X78072165Y-111174032D01*
X78072167Y-111174033D01*
X78072170Y-111174035D01*
X78286337Y-111273903D01*
X78514592Y-111335063D01*
X78691034Y-111350500D01*
X78749999Y-111355659D01*
X78750000Y-111355659D01*
X78750001Y-111355659D01*
X78808966Y-111350500D01*
X78985408Y-111335063D01*
X79213663Y-111273903D01*
X79427830Y-111174035D01*
X79621401Y-111038495D01*
X79788495Y-110871401D01*
X79924035Y-110677830D01*
X80023903Y-110463663D01*
X80085063Y-110235408D01*
X80105659Y-110000000D01*
X80085063Y-109764592D01*
X80023903Y-109536337D01*
X79924035Y-109322171D01*
X79918731Y-109314595D01*
X79788494Y-109128597D01*
X79621402Y-108961506D01*
X79621395Y-108961501D01*
X79427834Y-108825967D01*
X79427830Y-108825965D01*
X79427828Y-108825964D01*
X79213663Y-108726097D01*
X79213659Y-108726096D01*
X79213655Y-108726094D01*
X78985413Y-108664938D01*
X78985403Y-108664936D01*
X78750001Y-108644341D01*
X78749999Y-108644341D01*
X78514596Y-108664936D01*
X78514586Y-108664938D01*
X78286344Y-108726094D01*
X78286335Y-108726098D01*
X78072171Y-108825964D01*
X78072169Y-108825965D01*
X77878597Y-108961505D01*
X77711505Y-109128597D01*
X77581575Y-109314158D01*
X77526998Y-109357783D01*
X77457500Y-109364977D01*
X77395145Y-109333454D01*
X77378425Y-109314158D01*
X77248494Y-109128597D01*
X77081402Y-108961506D01*
X77081395Y-108961501D01*
X76887834Y-108825967D01*
X76887830Y-108825965D01*
X76887828Y-108825964D01*
X76673663Y-108726097D01*
X76673659Y-108726096D01*
X76673655Y-108726094D01*
X76445413Y-108664938D01*
X76445403Y-108664936D01*
X76210001Y-108644341D01*
X76209999Y-108644341D01*
X75974596Y-108664936D01*
X75974586Y-108664938D01*
X75746344Y-108726094D01*
X75746335Y-108726098D01*
X75532171Y-108825964D01*
X75532169Y-108825965D01*
X75338597Y-108961505D01*
X75171508Y-109128594D01*
X75041269Y-109314595D01*
X74986692Y-109358219D01*
X74917193Y-109365412D01*
X74854839Y-109333890D01*
X74838119Y-109314594D01*
X74708113Y-109128926D01*
X74708108Y-109128920D01*
X74541082Y-108961894D01*
X74347578Y-108826399D01*
X74133492Y-108726570D01*
X74133486Y-108726567D01*
X73920000Y-108669364D01*
X73920000Y-109566988D01*
X73862993Y-109534075D01*
X73735826Y-109500000D01*
X73604174Y-109500000D01*
X73477007Y-109534075D01*
X73420000Y-109566988D01*
X73420000Y-108669364D01*
X73419999Y-108669364D01*
X73206513Y-108726567D01*
X73206507Y-108726570D01*
X72992422Y-108826399D01*
X72992420Y-108826400D01*
X72798926Y-108961886D01*
X72676865Y-109083947D01*
X72615542Y-109117431D01*
X72545850Y-109112447D01*
X72489917Y-109070575D01*
X72473002Y-109039598D01*
X72423797Y-108907671D01*
X72423793Y-108907664D01*
X72337547Y-108792455D01*
X72337544Y-108792452D01*
X72222335Y-108706206D01*
X72222328Y-108706202D01*
X72087482Y-108655908D01*
X72087483Y-108655908D01*
X72027883Y-108649501D01*
X72027881Y-108649500D01*
X72027873Y-108649500D01*
X72027864Y-108649500D01*
X70232129Y-108649500D01*
X70232123Y-108649501D01*
X70172516Y-108655908D01*
X70037671Y-108706202D01*
X70037664Y-108706206D01*
X69922455Y-108792452D01*
X69922452Y-108792455D01*
X69836206Y-108907664D01*
X69836202Y-108907671D01*
X69785908Y-109042517D01*
X69779501Y-109102116D01*
X69779500Y-109102135D01*
X63700500Y-109102135D01*
X63700500Y-107511761D01*
X79282670Y-107511761D01*
X79282670Y-107511768D01*
X79302865Y-107691014D01*
X79302866Y-107691019D01*
X79362446Y-107861288D01*
X79458419Y-108014027D01*
X79585973Y-108141581D01*
X79738713Y-108237554D01*
X79908980Y-108297133D01*
X79908985Y-108297134D01*
X80088231Y-108317330D01*
X80088235Y-108317330D01*
X80088239Y-108317330D01*
X80267484Y-108297134D01*
X80267487Y-108297133D01*
X80267490Y-108297133D01*
X80437757Y-108237554D01*
X80590497Y-108141581D01*
X80590502Y-108141575D01*
X80593332Y-108139320D01*
X80595510Y-108138430D01*
X80596393Y-108137876D01*
X80596490Y-108138030D01*
X80658018Y-108112910D01*
X80670647Y-108112265D01*
X82017588Y-108112265D01*
X82084627Y-108131950D01*
X82094903Y-108139320D01*
X82097736Y-108141579D01*
X82097738Y-108141581D01*
X82250478Y-108237554D01*
X82420745Y-108297133D01*
X82420750Y-108297134D01*
X82599996Y-108317330D01*
X82600000Y-108317330D01*
X82600004Y-108317330D01*
X82779249Y-108297134D01*
X82779252Y-108297133D01*
X82779255Y-108297133D01*
X82949522Y-108237554D01*
X83102262Y-108141581D01*
X83229816Y-108014027D01*
X83325789Y-107861287D01*
X83385368Y-107691020D01*
X83405565Y-107511765D01*
X83385368Y-107332510D01*
X83325789Y-107162243D01*
X83229816Y-107009503D01*
X83102262Y-106881949D01*
X82949523Y-106785976D01*
X82779254Y-106726396D01*
X82779249Y-106726395D01*
X82600004Y-106706200D01*
X82599996Y-106706200D01*
X82420750Y-106726395D01*
X82420745Y-106726396D01*
X82250476Y-106785976D01*
X82097736Y-106881950D01*
X82094903Y-106884210D01*
X82092724Y-106885099D01*
X82091842Y-106885654D01*
X82091744Y-106885499D01*
X82030217Y-106910620D01*
X82017588Y-106911265D01*
X80670647Y-106911265D01*
X80603608Y-106891580D01*
X80593332Y-106884210D01*
X80590498Y-106881950D01*
X80590497Y-106881949D01*
X80533731Y-106846280D01*
X80437758Y-106785976D01*
X80267489Y-106726396D01*
X80267484Y-106726395D01*
X80088239Y-106706200D01*
X80088231Y-106706200D01*
X79908985Y-106726395D01*
X79908980Y-106726396D01*
X79738711Y-106785976D01*
X79585972Y-106881949D01*
X79458419Y-107009502D01*
X79362446Y-107162241D01*
X79302866Y-107332510D01*
X79302865Y-107332515D01*
X79282670Y-107511761D01*
X63700500Y-107511761D01*
X63700500Y-104699996D01*
X83594435Y-104699996D01*
X83594435Y-104700003D01*
X83614630Y-104879249D01*
X83614631Y-104879254D01*
X83674211Y-105049523D01*
X83705926Y-105099996D01*
X83770184Y-105202262D01*
X83897738Y-105329816D01*
X84050478Y-105425789D01*
X84217701Y-105484303D01*
X84264427Y-105513663D01*
X84331284Y-105580520D01*
X84418095Y-105630639D01*
X84418097Y-105630641D01*
X84456151Y-105652611D01*
X84468215Y-105659577D01*
X84620943Y-105700500D01*
X85117588Y-105700500D01*
X85184627Y-105720185D01*
X85194903Y-105727555D01*
X85197736Y-105729814D01*
X85197738Y-105729816D01*
X85350478Y-105825789D01*
X85520745Y-105885368D01*
X85520750Y-105885369D01*
X85699996Y-105905565D01*
X85700000Y-105905565D01*
X85700004Y-105905565D01*
X85879249Y-105885369D01*
X85879252Y-105885368D01*
X85879255Y-105885368D01*
X86049522Y-105825789D01*
X86202262Y-105729816D01*
X86329816Y-105602262D01*
X86425789Y-105449522D01*
X86485368Y-105279255D01*
X86505565Y-105100000D01*
X86485368Y-104920745D01*
X86425789Y-104750478D01*
X86329816Y-104597738D01*
X86202262Y-104470184D01*
X86125990Y-104422259D01*
X86049523Y-104374211D01*
X85879254Y-104314631D01*
X85879249Y-104314630D01*
X85700004Y-104294435D01*
X85699996Y-104294435D01*
X85520750Y-104314630D01*
X85520745Y-104314631D01*
X85350475Y-104374211D01*
X85304244Y-104403260D01*
X85237007Y-104422259D01*
X85170172Y-104401890D01*
X85130031Y-104356036D01*
X85129494Y-104356374D01*
X85127374Y-104353000D01*
X85126550Y-104352059D01*
X85125787Y-104350474D01*
X85029815Y-104197737D01*
X84902262Y-104070184D01*
X84749523Y-103974211D01*
X84579254Y-103914631D01*
X84579249Y-103914630D01*
X84400004Y-103894435D01*
X84399996Y-103894435D01*
X84220750Y-103914630D01*
X84220745Y-103914631D01*
X84050476Y-103974211D01*
X83897737Y-104070184D01*
X83770184Y-104197737D01*
X83674211Y-104350476D01*
X83614631Y-104520745D01*
X83614630Y-104520750D01*
X83594435Y-104699996D01*
X63700500Y-104699996D01*
X63700500Y-102499996D01*
X82694435Y-102499996D01*
X82694435Y-102500003D01*
X82714630Y-102679249D01*
X82714631Y-102679254D01*
X82774211Y-102849523D01*
X82837045Y-102949522D01*
X82870184Y-103002262D01*
X82997738Y-103129816D01*
X83150478Y-103225789D01*
X83209564Y-103246464D01*
X83237500Y-103260403D01*
X83244505Y-103265084D01*
X83381087Y-103321658D01*
X83381091Y-103321658D01*
X83381092Y-103321659D01*
X83526079Y-103350500D01*
X83526082Y-103350500D01*
X83673917Y-103350500D01*
X86000028Y-103350500D01*
X86040983Y-103357458D01*
X86120745Y-103385368D01*
X86120750Y-103385369D01*
X86299996Y-103405565D01*
X86300000Y-103405565D01*
X86300004Y-103405565D01*
X86479249Y-103385369D01*
X86479252Y-103385368D01*
X86479255Y-103385368D01*
X86649522Y-103325789D01*
X86802262Y-103229816D01*
X86929816Y-103102262D01*
X87025789Y-102949522D01*
X87085368Y-102779255D01*
X87085369Y-102779249D01*
X87105565Y-102600003D01*
X87105565Y-102599996D01*
X87085369Y-102420750D01*
X87085368Y-102420745D01*
X87025788Y-102250476D01*
X86962955Y-102150478D01*
X86929816Y-102097738D01*
X86802262Y-101970184D01*
X86649523Y-101874211D01*
X86479254Y-101814631D01*
X86479249Y-101814630D01*
X86300004Y-101794435D01*
X86299996Y-101794435D01*
X86120750Y-101814630D01*
X86120745Y-101814631D01*
X86040983Y-101842542D01*
X86000028Y-101849500D01*
X84005068Y-101849500D01*
X83939096Y-101830494D01*
X83849522Y-101774210D01*
X83849518Y-101774209D01*
X83679262Y-101714633D01*
X83679249Y-101714630D01*
X83500004Y-101694435D01*
X83499996Y-101694435D01*
X83320750Y-101714630D01*
X83320745Y-101714631D01*
X83150476Y-101774211D01*
X82997737Y-101870184D01*
X82870184Y-101997737D01*
X82774211Y-102150476D01*
X82714631Y-102320745D01*
X82714630Y-102320750D01*
X82694435Y-102499996D01*
X63700500Y-102499996D01*
X63700500Y-97999996D01*
X75594435Y-97999996D01*
X75594435Y-98000003D01*
X75614630Y-98179249D01*
X75614631Y-98179254D01*
X75674211Y-98349523D01*
X75705926Y-98399996D01*
X75770184Y-98502262D01*
X75897738Y-98629816D01*
X76050478Y-98725789D01*
X76118306Y-98749523D01*
X76220745Y-98785368D01*
X76220750Y-98785369D01*
X76399996Y-98805565D01*
X76400000Y-98805565D01*
X76400004Y-98805565D01*
X76579249Y-98785369D01*
X76579252Y-98785368D01*
X76579255Y-98785368D01*
X76749522Y-98725789D01*
X76902262Y-98629816D01*
X77029816Y-98502262D01*
X77094074Y-98399996D01*
X79794435Y-98399996D01*
X79794435Y-98400003D01*
X79814630Y-98579249D01*
X79814631Y-98579254D01*
X79874211Y-98749523D01*
X79970185Y-98902263D01*
X79972445Y-98905097D01*
X79973334Y-98907275D01*
X79973889Y-98908158D01*
X79973734Y-98908255D01*
X79998855Y-98969783D01*
X79999500Y-98982412D01*
X79999500Y-99713330D01*
X79999499Y-99713348D01*
X79999499Y-99879054D01*
X79999498Y-99879054D01*
X80040423Y-100031785D01*
X80061457Y-100068216D01*
X80091784Y-100120745D01*
X80119479Y-100168715D01*
X80231284Y-100280520D01*
X80231285Y-100280522D01*
X80269298Y-100318535D01*
X80302783Y-100379858D01*
X80304837Y-100392332D01*
X80314630Y-100479249D01*
X80374210Y-100649521D01*
X80470184Y-100802262D01*
X80597738Y-100929816D01*
X80750478Y-101025789D01*
X80920745Y-101085368D01*
X80920750Y-101085369D01*
X81099996Y-101105565D01*
X81100000Y-101105565D01*
X81100004Y-101105565D01*
X81279249Y-101085369D01*
X81279252Y-101085368D01*
X81279255Y-101085368D01*
X81449522Y-101025789D01*
X81602262Y-100929816D01*
X81729816Y-100802262D01*
X81825789Y-100649522D01*
X81885368Y-100479255D01*
X81895162Y-100392332D01*
X81905565Y-100300003D01*
X81905565Y-100299996D01*
X81885369Y-100120750D01*
X81885368Y-100120745D01*
X81866987Y-100068215D01*
X81825789Y-99950478D01*
X81729816Y-99797738D01*
X81602262Y-99670184D01*
X81449521Y-99574210D01*
X81356845Y-99541781D01*
X81283544Y-99516132D01*
X81226770Y-99475412D01*
X81201022Y-99410460D01*
X81200500Y-99399092D01*
X81200500Y-98982412D01*
X81220185Y-98915373D01*
X81227555Y-98905097D01*
X81229810Y-98902267D01*
X81229816Y-98902262D01*
X81325789Y-98749522D01*
X81385368Y-98579255D01*
X81405565Y-98400000D01*
X81385368Y-98220745D01*
X81325789Y-98050478D01*
X81229816Y-97897738D01*
X81102262Y-97770184D01*
X80949523Y-97674211D01*
X80779254Y-97614631D01*
X80779249Y-97614630D01*
X80600004Y-97594435D01*
X80599996Y-97594435D01*
X80420750Y-97614630D01*
X80420745Y-97614631D01*
X80250476Y-97674211D01*
X80097737Y-97770184D01*
X79970184Y-97897737D01*
X79874211Y-98050476D01*
X79814631Y-98220745D01*
X79814630Y-98220750D01*
X79794435Y-98399996D01*
X77094074Y-98399996D01*
X77125789Y-98349522D01*
X77185368Y-98179255D01*
X77205565Y-98000000D01*
X77205565Y-97999996D01*
X77205565Y-97995031D01*
X77225250Y-97927992D01*
X77241884Y-97907350D01*
X77554799Y-97594435D01*
X78018536Y-97130698D01*
X78079857Y-97097215D01*
X78092310Y-97095163D01*
X78179255Y-97085368D01*
X78349522Y-97025789D01*
X78502262Y-96929816D01*
X78629816Y-96802262D01*
X78725789Y-96649522D01*
X78785368Y-96479255D01*
X78805565Y-96300000D01*
X78802419Y-96272081D01*
X78785369Y-96120750D01*
X78785368Y-96120745D01*
X78725789Y-95950478D01*
X78629816Y-95797738D01*
X78502262Y-95670184D01*
X78349523Y-95574211D01*
X78179254Y-95514631D01*
X78179249Y-95514630D01*
X78000004Y-95494435D01*
X77999996Y-95494435D01*
X77820750Y-95514630D01*
X77820745Y-95514631D01*
X77650476Y-95574211D01*
X77497737Y-95670184D01*
X77370184Y-95797737D01*
X77274210Y-95950478D01*
X77214630Y-96120750D01*
X77204837Y-96207667D01*
X77177770Y-96272081D01*
X77169298Y-96281464D01*
X76264426Y-97186337D01*
X76217699Y-97215698D01*
X76050478Y-97274210D01*
X75897737Y-97370184D01*
X75770184Y-97497737D01*
X75674211Y-97650476D01*
X75614631Y-97820745D01*
X75614630Y-97820750D01*
X75594435Y-97999996D01*
X63700500Y-97999996D01*
X63700500Y-92949996D01*
X65844435Y-92949996D01*
X65844435Y-92950003D01*
X65864630Y-93129249D01*
X65864631Y-93129254D01*
X65924211Y-93299523D01*
X66020184Y-93452262D01*
X66147738Y-93579816D01*
X66300478Y-93675789D01*
X66470745Y-93735368D01*
X66477974Y-93736182D01*
X66542388Y-93763246D01*
X66551776Y-93771722D01*
X68594724Y-95814669D01*
X68639789Y-95859734D01*
X68657101Y-95881442D01*
X68670181Y-95902258D01*
X68670182Y-95902260D01*
X68670184Y-95902262D01*
X68797738Y-96029816D01*
X68888080Y-96086582D01*
X68942450Y-96120745D01*
X68950478Y-96125789D01*
X69120745Y-96185368D01*
X69120750Y-96185369D01*
X69299996Y-96205565D01*
X69300000Y-96205565D01*
X69300004Y-96205565D01*
X69479249Y-96185369D01*
X69479252Y-96185368D01*
X69479255Y-96185368D01*
X69649522Y-96125789D01*
X69802262Y-96029816D01*
X69929816Y-95902262D01*
X70025789Y-95749522D01*
X70085368Y-95579255D01*
X70085369Y-95579249D01*
X70105565Y-95400003D01*
X70105565Y-95399996D01*
X70085369Y-95220750D01*
X70085368Y-95220745D01*
X70025788Y-95050476D01*
X69929815Y-94897737D01*
X69802262Y-94770184D01*
X69649523Y-94674211D01*
X69479254Y-94614631D01*
X69479249Y-94614630D01*
X69300004Y-94594435D01*
X69299999Y-94594435D01*
X69282384Y-94596419D01*
X69213562Y-94584361D01*
X69180824Y-94560879D01*
X67471722Y-92851776D01*
X67438237Y-92790453D01*
X67436182Y-92777973D01*
X67435368Y-92770745D01*
X67375789Y-92600478D01*
X67279816Y-92447738D01*
X67152262Y-92320184D01*
X66999523Y-92224211D01*
X66829254Y-92164631D01*
X66829249Y-92164630D01*
X66650004Y-92144435D01*
X66649996Y-92144435D01*
X66470750Y-92164630D01*
X66470745Y-92164631D01*
X66300476Y-92224211D01*
X66147737Y-92320184D01*
X66020184Y-92447737D01*
X65924211Y-92600476D01*
X65864631Y-92770745D01*
X65864630Y-92770750D01*
X65844435Y-92949996D01*
X63700500Y-92949996D01*
X63700500Y-88577135D01*
X64149500Y-88577135D01*
X64149500Y-90372870D01*
X64149501Y-90372876D01*
X64155908Y-90432483D01*
X64206202Y-90567328D01*
X64206206Y-90567335D01*
X64292452Y-90682544D01*
X64292455Y-90682547D01*
X64407664Y-90768793D01*
X64407671Y-90768797D01*
X64542517Y-90819091D01*
X64542516Y-90819091D01*
X64549444Y-90819835D01*
X64602127Y-90825500D01*
X66397872Y-90825499D01*
X66457483Y-90819091D01*
X66592331Y-90768796D01*
X66707546Y-90682546D01*
X66793796Y-90567331D01*
X66844091Y-90432483D01*
X66850500Y-90372873D01*
X66850499Y-88577128D01*
X66844091Y-88517517D01*
X66793796Y-88382669D01*
X66793795Y-88382668D01*
X66793793Y-88382664D01*
X66707547Y-88267455D01*
X66707544Y-88267452D01*
X66592335Y-88181206D01*
X66592328Y-88181202D01*
X66460401Y-88131997D01*
X66404467Y-88090126D01*
X66380050Y-88024662D01*
X66394902Y-87956389D01*
X66416053Y-87928133D01*
X66538108Y-87806078D01*
X66673600Y-87612578D01*
X66773429Y-87398492D01*
X66773432Y-87398486D01*
X66830636Y-87185000D01*
X65933012Y-87185000D01*
X65965925Y-87127993D01*
X66000000Y-87000826D01*
X66000000Y-86869174D01*
X65965925Y-86742007D01*
X65933012Y-86685000D01*
X66830636Y-86685000D01*
X66830635Y-86684999D01*
X66773432Y-86471513D01*
X66773429Y-86471507D01*
X66673600Y-86257422D01*
X66673599Y-86257420D01*
X66538113Y-86063926D01*
X66538108Y-86063920D01*
X66371082Y-85896894D01*
X66177578Y-85761399D01*
X65963492Y-85661570D01*
X65963486Y-85661567D01*
X65750000Y-85604364D01*
X65750000Y-86501988D01*
X65692993Y-86469075D01*
X65565826Y-86435000D01*
X65434174Y-86435000D01*
X65307007Y-86469075D01*
X65250000Y-86501988D01*
X65250000Y-85604364D01*
X65249999Y-85604364D01*
X65036513Y-85661567D01*
X65036507Y-85661570D01*
X64822422Y-85761399D01*
X64822420Y-85761400D01*
X64628926Y-85896886D01*
X64628920Y-85896891D01*
X64461891Y-86063920D01*
X64461886Y-86063926D01*
X64326400Y-86257420D01*
X64326399Y-86257422D01*
X64226570Y-86471507D01*
X64226567Y-86471513D01*
X64169364Y-86684999D01*
X64169364Y-86685000D01*
X65066988Y-86685000D01*
X65034075Y-86742007D01*
X65000000Y-86869174D01*
X65000000Y-87000826D01*
X65034075Y-87127993D01*
X65066988Y-87185000D01*
X64169364Y-87185000D01*
X64226567Y-87398486D01*
X64226570Y-87398492D01*
X64326399Y-87612578D01*
X64461894Y-87806082D01*
X64583946Y-87928134D01*
X64617431Y-87989457D01*
X64612447Y-88059149D01*
X64570575Y-88115082D01*
X64539598Y-88131997D01*
X64407671Y-88181202D01*
X64407664Y-88181206D01*
X64292455Y-88267452D01*
X64292452Y-88267455D01*
X64206206Y-88382664D01*
X64206202Y-88382671D01*
X64155908Y-88517517D01*
X64149501Y-88577116D01*
X64149501Y-88577123D01*
X64149500Y-88577135D01*
X63700500Y-88577135D01*
X63700500Y-84249999D01*
X71404364Y-84249999D01*
X71404364Y-84250000D01*
X72301988Y-84250000D01*
X72269075Y-84307007D01*
X72235000Y-84434174D01*
X72235000Y-84565826D01*
X72269075Y-84692993D01*
X72301988Y-84750000D01*
X71404364Y-84750000D01*
X71461567Y-84963486D01*
X71461570Y-84963492D01*
X71561399Y-85177578D01*
X71696894Y-85371082D01*
X71863917Y-85538105D01*
X72057421Y-85673600D01*
X72271507Y-85773429D01*
X72271516Y-85773433D01*
X72485000Y-85830634D01*
X72485000Y-84933012D01*
X72542007Y-84965925D01*
X72669174Y-85000000D01*
X72800826Y-85000000D01*
X72927993Y-84965925D01*
X72985000Y-84933012D01*
X72985000Y-85830633D01*
X73198483Y-85773433D01*
X73198492Y-85773429D01*
X73412578Y-85673600D01*
X73606078Y-85538108D01*
X73728133Y-85416053D01*
X73789456Y-85382568D01*
X73859148Y-85387552D01*
X73915082Y-85429423D01*
X73931997Y-85460401D01*
X73981202Y-85592328D01*
X73981206Y-85592335D01*
X74067452Y-85707544D01*
X74067455Y-85707547D01*
X74182664Y-85793793D01*
X74182671Y-85793797D01*
X74317517Y-85844091D01*
X74317516Y-85844091D01*
X74324444Y-85844835D01*
X74377127Y-85850500D01*
X76172872Y-85850499D01*
X76232483Y-85844091D01*
X76367331Y-85793796D01*
X76482546Y-85707546D01*
X76568796Y-85592331D01*
X76619091Y-85457483D01*
X76625500Y-85397873D01*
X76625499Y-83602128D01*
X76619091Y-83542517D01*
X76618002Y-83539598D01*
X76568797Y-83407671D01*
X76568793Y-83407664D01*
X76482547Y-83292455D01*
X76482544Y-83292452D01*
X76367335Y-83206206D01*
X76367328Y-83206202D01*
X76232482Y-83155908D01*
X76232483Y-83155908D01*
X76172883Y-83149501D01*
X76172881Y-83149500D01*
X76172873Y-83149500D01*
X76172864Y-83149500D01*
X74377129Y-83149500D01*
X74377123Y-83149501D01*
X74317516Y-83155908D01*
X74182671Y-83206202D01*
X74182664Y-83206206D01*
X74067455Y-83292452D01*
X74067452Y-83292455D01*
X73981206Y-83407664D01*
X73981202Y-83407671D01*
X73931997Y-83539598D01*
X73890126Y-83595532D01*
X73824661Y-83619949D01*
X73756388Y-83605097D01*
X73728134Y-83583946D01*
X73606082Y-83461894D01*
X73412578Y-83326399D01*
X73198492Y-83226570D01*
X73198486Y-83226567D01*
X72985000Y-83169364D01*
X72985000Y-84066988D01*
X72927993Y-84034075D01*
X72800826Y-84000000D01*
X72669174Y-84000000D01*
X72542007Y-84034075D01*
X72485000Y-84066988D01*
X72485000Y-83169364D01*
X72484999Y-83169364D01*
X72271513Y-83226567D01*
X72271507Y-83226570D01*
X72057422Y-83326399D01*
X72057420Y-83326400D01*
X71863926Y-83461886D01*
X71863920Y-83461891D01*
X71696891Y-83628920D01*
X71696886Y-83628926D01*
X71561400Y-83822420D01*
X71561399Y-83822422D01*
X71461570Y-84036507D01*
X71461567Y-84036513D01*
X71404364Y-84249999D01*
X63700500Y-84249999D01*
X63700500Y-82824500D01*
X63720185Y-82757461D01*
X63772989Y-82711706D01*
X63824500Y-82700500D01*
X93175500Y-82700500D01*
X93242539Y-82720185D01*
G37*
G04 #@! TD.AperFunction*
G04 #@! TD*
M02*
