M48
; DRILL file {KiCad 8.0.9} date 2026-08-02T14:26:52+0900
; FORMAT={-:-/ absolute / metric / decimal}
; #@! TF.CreationDate,2026-08-02T14:26:52+09:00
; #@! TF.GenerationSoftware,Kicad,Pcbnew,8.0.9
; #@! TF.FileFunction,Plated,1,2,PTH
FMAT,2
METRIC
; #@! TA.AperFunction,Plated,PTH,ViaDrill
T1C0.300
; #@! TA.AperFunction,Plated,PTH,ComponentDrill
T2C1.000
%
G90
G05
T1
X65.0Y-84.0
X66.65Y-92.95
X67.0Y-88.0
X67.5Y-95.7
X68.0Y-84.0
X68.2Y-86.0
X68.8Y-98.3
X68.9Y-92.8
X68.9Y-106.7
X69.3Y-95.4
X70.0Y-86.0
X70.2Y-102.0
X70.3Y-93.5
X71.0Y-84.0
X71.0Y-96.25
X71.0Y-101.0
X72.0Y-87.0
X72.9Y-106.7
X73.0Y-98.25
X75.5Y-96.5
X75.5Y-100.75
X75.5Y-104.6
X76.4Y-98.0
X77.0Y-84.0
X77.0Y-89.9
X77.0Y-93.5
X77.6Y-92.0
X77.6Y-95.0
X78.0Y-96.3
X78.1Y-102.1
X78.1Y-103.4
X78.8Y-98.4
X78.8Y-102.75
X79.0Y-86.0
X79.5Y-102.1
X79.5Y-103.4
X80.0Y-86.0
X80.088Y-107.512
X80.6Y-98.4
X80.9Y-111.2
X81.1Y-100.3
X81.25Y-92.0
X82.0Y-84.0
X82.0Y-100.9
X82.0Y-105.9
X82.3Y-111.2
X82.5Y-85.7
X82.6Y-107.512
X83.5Y-102.5
X84.1Y-95.3
X84.4Y-104.7
X85.2Y-108.1
X85.25Y-92.0
X85.3Y-111.2
X85.7Y-105.1
X85.837Y-105.888
X85.9Y-94.0
X86.3Y-102.6
X86.6Y-111.2
X87.0Y-84.0
X87.733Y-103.832
X88.3Y-97.1
X88.761Y-91.395
X89.373Y-105.304
X90.5Y-107.1
X90.8Y-98.5
X90.8Y-99.6
X91.1Y-95.1
X91.2Y-96.2
X91.6Y-104.0
X92.0Y-84.0
X92.3Y-87.3
X92.3Y-89.8
T2
X65.5Y-86.935
X65.5Y-89.475
X71.13Y-110.0
X72.735Y-84.5
X73.67Y-110.0
X75.275Y-84.5
X76.21Y-110.0
X78.75Y-110.0
M30
