%TF.GenerationSoftware,KiCad,Pcbnew,8.0.9*%
%TF.CreationDate,2026-08-02T14:26:52+09:00*%
%TF.ProjectId,tag_atmega328,7461675f-6174-46d6-9567-613332382e6b,rev?*%
%TF.SameCoordinates,Original*%
%TF.FileFunction,Drillmap*%
%TF.FilePolarity,Positive*%
%FSLAX45Y45*%
G04 Gerber Fmt 4.5, Leading zero omitted, Abs format (unit mm)*
G04 Created by KiCad (PCBNEW 8.0.9) date 2026-08-02 14:26:52*
%MOMM*%
%LPD*%
G01*
G04 APERTURE LIST*
%ADD10C,0.050000*%
%ADD11C,0.200000*%
%ADD12C,0.100000*%
G04 APERTURE END LIST*
D10*
X6350000Y-8250000D02*
X9350000Y-8250000D01*
X9350000Y-11250000D01*
X6350000Y-11250000D01*
X6350000Y-8250000D01*
D11*
D12*
X6485000Y-8385000D02*
X6515000Y-8415000D01*
X6515000Y-8385000D02*
X6485000Y-8415000D01*
X6650000Y-9280000D02*
X6680000Y-9310000D01*
X6680000Y-9280000D02*
X6650000Y-9310000D01*
X6685000Y-8785000D02*
X6715000Y-8815000D01*
X6715000Y-8785000D02*
X6685000Y-8815000D01*
X6735000Y-9555000D02*
X6765000Y-9585000D01*
X6765000Y-9555000D02*
X6735000Y-9585000D01*
X6785000Y-8385000D02*
X6815000Y-8415000D01*
X6815000Y-8385000D02*
X6785000Y-8415000D01*
X6805000Y-8585000D02*
X6835000Y-8615000D01*
X6835000Y-8585000D02*
X6805000Y-8615000D01*
X6865000Y-9815000D02*
X6895000Y-9845000D01*
X6895000Y-9815000D02*
X6865000Y-9845000D01*
X6875000Y-9265000D02*
X6905000Y-9295000D01*
X6905000Y-9265000D02*
X6875000Y-9295000D01*
X6875000Y-10655000D02*
X6905000Y-10685000D01*
X6905000Y-10655000D02*
X6875000Y-10685000D01*
X6915000Y-9525000D02*
X6945000Y-9555000D01*
X6945000Y-9525000D02*
X6915000Y-9555000D01*
X6985000Y-8585000D02*
X7015000Y-8615000D01*
X7015000Y-8585000D02*
X6985000Y-8615000D01*
X7005000Y-10185000D02*
X7035000Y-10215000D01*
X7035000Y-10185000D02*
X7005000Y-10215000D01*
X7015000Y-9335000D02*
X7045000Y-9365000D01*
X7045000Y-9335000D02*
X7015000Y-9365000D01*
X7085000Y-8385000D02*
X7115000Y-8415000D01*
X7115000Y-8385000D02*
X7085000Y-8415000D01*
X7085000Y-9610000D02*
X7115000Y-9640000D01*
X7115000Y-9610000D02*
X7085000Y-9640000D01*
X7085000Y-10085000D02*
X7115000Y-10115000D01*
X7115000Y-10085000D02*
X7085000Y-10115000D01*
X7185000Y-8685000D02*
X7215000Y-8715000D01*
X7215000Y-8685000D02*
X7185000Y-8715000D01*
X7275000Y-10655000D02*
X7305000Y-10685000D01*
X7305000Y-10655000D02*
X7275000Y-10685000D01*
X7285000Y-9810000D02*
X7315000Y-9840000D01*
X7315000Y-9810000D02*
X7285000Y-9840000D01*
X7535000Y-9635000D02*
X7565000Y-9665000D01*
X7565000Y-9635000D02*
X7535000Y-9665000D01*
X7535000Y-10060000D02*
X7565000Y-10090000D01*
X7565000Y-10060000D02*
X7535000Y-10090000D01*
X7535000Y-10445000D02*
X7565000Y-10475000D01*
X7565000Y-10445000D02*
X7535000Y-10475000D01*
X7625000Y-9785000D02*
X7655000Y-9815000D01*
X7655000Y-9785000D02*
X7625000Y-9815000D01*
X7685000Y-8385000D02*
X7715000Y-8415000D01*
X7715000Y-8385000D02*
X7685000Y-8415000D01*
X7685000Y-8975000D02*
X7715000Y-9005000D01*
X7715000Y-8975000D02*
X7685000Y-9005000D01*
X7685000Y-9335000D02*
X7715000Y-9365000D01*
X7715000Y-9335000D02*
X7685000Y-9365000D01*
X7745000Y-9185000D02*
X7775000Y-9215000D01*
X7775000Y-9185000D02*
X7745000Y-9215000D01*
X7745000Y-9485000D02*
X7775000Y-9515000D01*
X7775000Y-9485000D02*
X7745000Y-9515000D01*
X7785000Y-9615000D02*
X7815000Y-9645000D01*
X7815000Y-9615000D02*
X7785000Y-9645000D01*
X7795000Y-10195000D02*
X7825000Y-10225000D01*
X7825000Y-10195000D02*
X7795000Y-10225000D01*
X7795000Y-10325000D02*
X7825000Y-10355000D01*
X7825000Y-10325000D02*
X7795000Y-10355000D01*
X7865000Y-9825000D02*
X7895000Y-9855000D01*
X7895000Y-9825000D02*
X7865000Y-9855000D01*
X7865000Y-10260000D02*
X7895000Y-10290000D01*
X7895000Y-10260000D02*
X7865000Y-10290000D01*
X7885000Y-8585000D02*
X7915000Y-8615000D01*
X7915000Y-8585000D02*
X7885000Y-8615000D01*
X7935000Y-10195000D02*
X7965000Y-10225000D01*
X7965000Y-10195000D02*
X7935000Y-10225000D01*
X7935000Y-10325000D02*
X7965000Y-10355000D01*
X7965000Y-10325000D02*
X7935000Y-10355000D01*
X7985000Y-8585000D02*
X8015000Y-8615000D01*
X8015000Y-8585000D02*
X7985000Y-8615000D01*
X7993823Y-10736177D02*
X8023823Y-10766177D01*
X8023823Y-10736177D02*
X7993823Y-10766177D01*
X8045000Y-9825000D02*
X8075000Y-9855000D01*
X8075000Y-9825000D02*
X8045000Y-9855000D01*
X8075000Y-11105000D02*
X8105000Y-11135000D01*
X8105000Y-11105000D02*
X8075000Y-11135000D01*
X8095000Y-10015000D02*
X8125000Y-10045000D01*
X8125000Y-10015000D02*
X8095000Y-10045000D01*
X8110000Y-9185000D02*
X8140000Y-9215000D01*
X8140000Y-9185000D02*
X8110000Y-9215000D01*
X8185000Y-8385000D02*
X8215000Y-8415000D01*
X8215000Y-8385000D02*
X8185000Y-8415000D01*
X8185000Y-10075000D02*
X8215000Y-10105000D01*
X8215000Y-10075000D02*
X8185000Y-10105000D01*
X8185000Y-10575000D02*
X8215000Y-10605000D01*
X8215000Y-10575000D02*
X8185000Y-10605000D01*
X8215000Y-11105000D02*
X8245000Y-11135000D01*
X8245000Y-11105000D02*
X8215000Y-11135000D01*
X8235000Y-8555000D02*
X8265000Y-8585000D01*
X8265000Y-8555000D02*
X8235000Y-8585000D01*
X8245000Y-10736177D02*
X8275000Y-10766177D01*
X8275000Y-10736177D02*
X8245000Y-10766177D01*
X8335000Y-10235000D02*
X8365000Y-10265000D01*
X8365000Y-10235000D02*
X8335000Y-10265000D01*
X8395000Y-9515000D02*
X8425000Y-9545000D01*
X8425000Y-9515000D02*
X8395000Y-9545000D01*
X8425000Y-10455000D02*
X8455000Y-10485000D01*
X8455000Y-10455000D02*
X8425000Y-10485000D01*
X8505000Y-10795000D02*
X8535000Y-10825000D01*
X8535000Y-10795000D02*
X8505000Y-10825000D01*
X8510000Y-9185000D02*
X8540000Y-9215000D01*
X8540000Y-9185000D02*
X8510000Y-9215000D01*
X8515000Y-11105000D02*
X8545000Y-11135000D01*
X8545000Y-11105000D02*
X8515000Y-11135000D01*
X8555000Y-10495000D02*
X8585000Y-10525000D01*
X8585000Y-10495000D02*
X8555000Y-10525000D01*
X8568676Y-10573823D02*
X8598676Y-10603823D01*
X8598676Y-10573823D02*
X8568676Y-10603823D01*
X8575000Y-9385000D02*
X8605000Y-9415000D01*
X8605000Y-9385000D02*
X8575000Y-9415000D01*
X8615000Y-10245000D02*
X8645000Y-10275000D01*
X8645000Y-10245000D02*
X8615000Y-10275000D01*
X8645000Y-11105000D02*
X8675000Y-11135000D01*
X8675000Y-11105000D02*
X8645000Y-11135000D01*
X8685000Y-8385000D02*
X8715000Y-8415000D01*
X8715000Y-8385000D02*
X8685000Y-8415000D01*
X8758250Y-10368250D02*
X8788250Y-10398250D01*
X8788250Y-10368250D02*
X8758250Y-10398250D01*
X8815000Y-9695000D02*
X8845000Y-9725000D01*
X8845000Y-9695000D02*
X8815000Y-9725000D01*
X8861125Y-9124500D02*
X8891125Y-9154500D01*
X8891125Y-9124500D02*
X8861125Y-9154500D01*
X8922310Y-10515440D02*
X8952310Y-10545440D01*
X8952310Y-10515440D02*
X8922310Y-10545440D01*
X9035000Y-10695000D02*
X9065000Y-10725000D01*
X9065000Y-10695000D02*
X9035000Y-10725000D01*
X9065000Y-9835000D02*
X9095000Y-9865000D01*
X9095000Y-9835000D02*
X9065000Y-9865000D01*
X9065000Y-9945000D02*
X9095000Y-9975000D01*
X9095000Y-9945000D02*
X9065000Y-9975000D01*
X9095000Y-9495000D02*
X9125000Y-9525000D01*
X9125000Y-9495000D02*
X9095000Y-9525000D01*
X9105000Y-9605000D02*
X9135000Y-9635000D01*
X9135000Y-9605000D02*
X9105000Y-9635000D01*
X9145000Y-10385000D02*
X9175000Y-10415000D01*
X9175000Y-10385000D02*
X9145000Y-10415000D01*
X9185000Y-8385000D02*
X9215000Y-8415000D01*
X9215000Y-8385000D02*
X9185000Y-8415000D01*
X9215000Y-8715000D02*
X9245000Y-8745000D01*
X9245000Y-8715000D02*
X9215000Y-8745000D01*
X9215000Y-8965000D02*
X9245000Y-8995000D01*
X9245000Y-8965000D02*
X9215000Y-8995000D01*
X6600000Y-8693500D02*
G75*
G02*
X6500000Y-8693500I-50000J0D01*
G01*
X6500000Y-8693500D02*
G75*
G02*
X6600000Y-8693500I50000J0D01*
G01*
X6600000Y-8947500D02*
G75*
G02*
X6500000Y-8947500I-50000J0D01*
G01*
X6500000Y-8947500D02*
G75*
G02*
X6600000Y-8947500I50000J0D01*
G01*
X7163000Y-11000000D02*
G75*
G02*
X7063000Y-11000000I-50000J0D01*
G01*
X7063000Y-11000000D02*
G75*
G02*
X7163000Y-11000000I50000J0D01*
G01*
X7323500Y-8450000D02*
G75*
G02*
X7223500Y-8450000I-50000J0D01*
G01*
X7223500Y-8450000D02*
G75*
G02*
X7323500Y-8450000I50000J0D01*
G01*
X7417000Y-11000000D02*
G75*
G02*
X7317000Y-11000000I-50000J0D01*
G01*
X7317000Y-11000000D02*
G75*
G02*
X7417000Y-11000000I50000J0D01*
G01*
X7577500Y-8450000D02*
G75*
G02*
X7477500Y-8450000I-50000J0D01*
G01*
X7477500Y-8450000D02*
G75*
G02*
X7577500Y-8450000I50000J0D01*
G01*
X7671000Y-11000000D02*
G75*
G02*
X7571000Y-11000000I-50000J0D01*
G01*
X7571000Y-11000000D02*
G75*
G02*
X7671000Y-11000000I50000J0D01*
G01*
X7925000Y-11000000D02*
G75*
G02*
X7825000Y-11000000I-50000J0D01*
G01*
X7825000Y-11000000D02*
G75*
G02*
X7925000Y-11000000I50000J0D01*
G01*
D11*
X6608277Y-11563984D02*
X6608277Y-11363984D01*
X6608277Y-11363984D02*
X6655896Y-11363984D01*
X6655896Y-11363984D02*
X6684467Y-11373508D01*
X6684467Y-11373508D02*
X6703515Y-11392555D01*
X6703515Y-11392555D02*
X6713039Y-11411603D01*
X6713039Y-11411603D02*
X6722562Y-11449698D01*
X6722562Y-11449698D02*
X6722562Y-11478269D01*
X6722562Y-11478269D02*
X6713039Y-11516365D01*
X6713039Y-11516365D02*
X6703515Y-11535412D01*
X6703515Y-11535412D02*
X6684467Y-11554460D01*
X6684467Y-11554460D02*
X6655896Y-11563984D01*
X6655896Y-11563984D02*
X6608277Y-11563984D01*
X6808277Y-11563984D02*
X6808277Y-11430650D01*
X6808277Y-11468746D02*
X6817801Y-11449698D01*
X6817801Y-11449698D02*
X6827324Y-11440174D01*
X6827324Y-11440174D02*
X6846372Y-11430650D01*
X6846372Y-11430650D02*
X6865420Y-11430650D01*
X6932086Y-11563984D02*
X6932086Y-11430650D01*
X6932086Y-11363984D02*
X6922562Y-11373508D01*
X6922562Y-11373508D02*
X6932086Y-11383031D01*
X6932086Y-11383031D02*
X6941610Y-11373508D01*
X6941610Y-11373508D02*
X6932086Y-11363984D01*
X6932086Y-11363984D02*
X6932086Y-11383031D01*
X7055896Y-11563984D02*
X7036848Y-11554460D01*
X7036848Y-11554460D02*
X7027324Y-11535412D01*
X7027324Y-11535412D02*
X7027324Y-11363984D01*
X7160658Y-11563984D02*
X7141610Y-11554460D01*
X7141610Y-11554460D02*
X7132086Y-11535412D01*
X7132086Y-11535412D02*
X7132086Y-11363984D01*
X7389229Y-11563984D02*
X7389229Y-11363984D01*
X7389229Y-11363984D02*
X7455896Y-11506841D01*
X7455896Y-11506841D02*
X7522562Y-11363984D01*
X7522562Y-11363984D02*
X7522562Y-11563984D01*
X7703515Y-11563984D02*
X7703515Y-11459222D01*
X7703515Y-11459222D02*
X7693991Y-11440174D01*
X7693991Y-11440174D02*
X7674943Y-11430650D01*
X7674943Y-11430650D02*
X7636848Y-11430650D01*
X7636848Y-11430650D02*
X7617801Y-11440174D01*
X7703515Y-11554460D02*
X7684467Y-11563984D01*
X7684467Y-11563984D02*
X7636848Y-11563984D01*
X7636848Y-11563984D02*
X7617801Y-11554460D01*
X7617801Y-11554460D02*
X7608277Y-11535412D01*
X7608277Y-11535412D02*
X7608277Y-11516365D01*
X7608277Y-11516365D02*
X7617801Y-11497317D01*
X7617801Y-11497317D02*
X7636848Y-11487793D01*
X7636848Y-11487793D02*
X7684467Y-11487793D01*
X7684467Y-11487793D02*
X7703515Y-11478269D01*
X7798753Y-11430650D02*
X7798753Y-11630650D01*
X7798753Y-11440174D02*
X7817801Y-11430650D01*
X7817801Y-11430650D02*
X7855896Y-11430650D01*
X7855896Y-11430650D02*
X7874943Y-11440174D01*
X7874943Y-11440174D02*
X7884467Y-11449698D01*
X7884467Y-11449698D02*
X7893991Y-11468746D01*
X7893991Y-11468746D02*
X7893991Y-11525888D01*
X7893991Y-11525888D02*
X7884467Y-11544936D01*
X7884467Y-11544936D02*
X7874943Y-11554460D01*
X7874943Y-11554460D02*
X7855896Y-11563984D01*
X7855896Y-11563984D02*
X7817801Y-11563984D01*
X7817801Y-11563984D02*
X7798753Y-11554460D01*
X7979705Y-11544936D02*
X7989229Y-11554460D01*
X7989229Y-11554460D02*
X7979705Y-11563984D01*
X7979705Y-11563984D02*
X7970182Y-11554460D01*
X7970182Y-11554460D02*
X7979705Y-11544936D01*
X7979705Y-11544936D02*
X7979705Y-11563984D01*
X7979705Y-11440174D02*
X7989229Y-11449698D01*
X7989229Y-11449698D02*
X7979705Y-11459222D01*
X7979705Y-11459222D02*
X7970182Y-11449698D01*
X7970182Y-11449698D02*
X7979705Y-11440174D01*
X7979705Y-11440174D02*
X7979705Y-11459222D01*
D12*
X6317500Y-11877500D02*
X6347500Y-11907500D01*
X6347500Y-11877500D02*
X6317500Y-11907500D01*
D11*
X6646372Y-11783984D02*
X6665420Y-11783984D01*
X6665420Y-11783984D02*
X6684467Y-11793508D01*
X6684467Y-11793508D02*
X6693991Y-11803031D01*
X6693991Y-11803031D02*
X6703515Y-11822079D01*
X6703515Y-11822079D02*
X6713039Y-11860174D01*
X6713039Y-11860174D02*
X6713039Y-11907793D01*
X6713039Y-11907793D02*
X6703515Y-11945888D01*
X6703515Y-11945888D02*
X6693991Y-11964936D01*
X6693991Y-11964936D02*
X6684467Y-11974460D01*
X6684467Y-11974460D02*
X6665420Y-11983984D01*
X6665420Y-11983984D02*
X6646372Y-11983984D01*
X6646372Y-11983984D02*
X6627324Y-11974460D01*
X6627324Y-11974460D02*
X6617801Y-11964936D01*
X6617801Y-11964936D02*
X6608277Y-11945888D01*
X6608277Y-11945888D02*
X6598753Y-11907793D01*
X6598753Y-11907793D02*
X6598753Y-11860174D01*
X6598753Y-11860174D02*
X6608277Y-11822079D01*
X6608277Y-11822079D02*
X6617801Y-11803031D01*
X6617801Y-11803031D02*
X6627324Y-11793508D01*
X6627324Y-11793508D02*
X6646372Y-11783984D01*
X6798753Y-11964936D02*
X6808277Y-11974460D01*
X6808277Y-11974460D02*
X6798753Y-11983984D01*
X6798753Y-11983984D02*
X6789229Y-11974460D01*
X6789229Y-11974460D02*
X6798753Y-11964936D01*
X6798753Y-11964936D02*
X6798753Y-11983984D01*
X6874943Y-11783984D02*
X6998753Y-11783984D01*
X6998753Y-11783984D02*
X6932086Y-11860174D01*
X6932086Y-11860174D02*
X6960658Y-11860174D01*
X6960658Y-11860174D02*
X6979705Y-11869698D01*
X6979705Y-11869698D02*
X6989229Y-11879222D01*
X6989229Y-11879222D02*
X6998753Y-11898269D01*
X6998753Y-11898269D02*
X6998753Y-11945888D01*
X6998753Y-11945888D02*
X6989229Y-11964936D01*
X6989229Y-11964936D02*
X6979705Y-11974460D01*
X6979705Y-11974460D02*
X6960658Y-11983984D01*
X6960658Y-11983984D02*
X6903515Y-11983984D01*
X6903515Y-11983984D02*
X6884467Y-11974460D01*
X6884467Y-11974460D02*
X6874943Y-11964936D01*
X7122562Y-11783984D02*
X7141610Y-11783984D01*
X7141610Y-11783984D02*
X7160658Y-11793508D01*
X7160658Y-11793508D02*
X7170182Y-11803031D01*
X7170182Y-11803031D02*
X7179705Y-11822079D01*
X7179705Y-11822079D02*
X7189229Y-11860174D01*
X7189229Y-11860174D02*
X7189229Y-11907793D01*
X7189229Y-11907793D02*
X7179705Y-11945888D01*
X7179705Y-11945888D02*
X7170182Y-11964936D01*
X7170182Y-11964936D02*
X7160658Y-11974460D01*
X7160658Y-11974460D02*
X7141610Y-11983984D01*
X7141610Y-11983984D02*
X7122562Y-11983984D01*
X7122562Y-11983984D02*
X7103515Y-11974460D01*
X7103515Y-11974460D02*
X7093991Y-11964936D01*
X7093991Y-11964936D02*
X7084467Y-11945888D01*
X7084467Y-11945888D02*
X7074943Y-11907793D01*
X7074943Y-11907793D02*
X7074943Y-11860174D01*
X7074943Y-11860174D02*
X7084467Y-11822079D01*
X7084467Y-11822079D02*
X7093991Y-11803031D01*
X7093991Y-11803031D02*
X7103515Y-11793508D01*
X7103515Y-11793508D02*
X7122562Y-11783984D01*
X7313039Y-11783984D02*
X7332086Y-11783984D01*
X7332086Y-11783984D02*
X7351134Y-11793508D01*
X7351134Y-11793508D02*
X7360658Y-11803031D01*
X7360658Y-11803031D02*
X7370182Y-11822079D01*
X7370182Y-11822079D02*
X7379705Y-11860174D01*
X7379705Y-11860174D02*
X7379705Y-11907793D01*
X7379705Y-11907793D02*
X7370182Y-11945888D01*
X7370182Y-11945888D02*
X7360658Y-11964936D01*
X7360658Y-11964936D02*
X7351134Y-11974460D01*
X7351134Y-11974460D02*
X7332086Y-11983984D01*
X7332086Y-11983984D02*
X7313039Y-11983984D01*
X7313039Y-11983984D02*
X7293991Y-11974460D01*
X7293991Y-11974460D02*
X7284467Y-11964936D01*
X7284467Y-11964936D02*
X7274943Y-11945888D01*
X7274943Y-11945888D02*
X7265420Y-11907793D01*
X7265420Y-11907793D02*
X7265420Y-11860174D01*
X7265420Y-11860174D02*
X7274943Y-11822079D01*
X7274943Y-11822079D02*
X7284467Y-11803031D01*
X7284467Y-11803031D02*
X7293991Y-11793508D01*
X7293991Y-11793508D02*
X7313039Y-11783984D01*
X7465420Y-11983984D02*
X7465420Y-11850650D01*
X7465420Y-11869698D02*
X7474943Y-11860174D01*
X7474943Y-11860174D02*
X7493991Y-11850650D01*
X7493991Y-11850650D02*
X7522563Y-11850650D01*
X7522563Y-11850650D02*
X7541610Y-11860174D01*
X7541610Y-11860174D02*
X7551134Y-11879222D01*
X7551134Y-11879222D02*
X7551134Y-11983984D01*
X7551134Y-11879222D02*
X7560658Y-11860174D01*
X7560658Y-11860174D02*
X7579705Y-11850650D01*
X7579705Y-11850650D02*
X7608277Y-11850650D01*
X7608277Y-11850650D02*
X7627324Y-11860174D01*
X7627324Y-11860174D02*
X7636848Y-11879222D01*
X7636848Y-11879222D02*
X7636848Y-11983984D01*
X7732086Y-11983984D02*
X7732086Y-11850650D01*
X7732086Y-11869698D02*
X7741610Y-11860174D01*
X7741610Y-11860174D02*
X7760658Y-11850650D01*
X7760658Y-11850650D02*
X7789229Y-11850650D01*
X7789229Y-11850650D02*
X7808277Y-11860174D01*
X7808277Y-11860174D02*
X7817801Y-11879222D01*
X7817801Y-11879222D02*
X7817801Y-11983984D01*
X7817801Y-11879222D02*
X7827324Y-11860174D01*
X7827324Y-11860174D02*
X7846372Y-11850650D01*
X7846372Y-11850650D02*
X7874943Y-11850650D01*
X7874943Y-11850650D02*
X7893991Y-11860174D01*
X7893991Y-11860174D02*
X7903515Y-11879222D01*
X7903515Y-11879222D02*
X7903515Y-11983984D01*
X8293991Y-11774460D02*
X8122563Y-12031603D01*
X8551134Y-11783984D02*
X8570182Y-11783984D01*
X8570182Y-11783984D02*
X8589229Y-11793508D01*
X8589229Y-11793508D02*
X8598753Y-11803031D01*
X8598753Y-11803031D02*
X8608277Y-11822079D01*
X8608277Y-11822079D02*
X8617801Y-11860174D01*
X8617801Y-11860174D02*
X8617801Y-11907793D01*
X8617801Y-11907793D02*
X8608277Y-11945888D01*
X8608277Y-11945888D02*
X8598753Y-11964936D01*
X8598753Y-11964936D02*
X8589229Y-11974460D01*
X8589229Y-11974460D02*
X8570182Y-11983984D01*
X8570182Y-11983984D02*
X8551134Y-11983984D01*
X8551134Y-11983984D02*
X8532087Y-11974460D01*
X8532087Y-11974460D02*
X8522563Y-11964936D01*
X8522563Y-11964936D02*
X8513039Y-11945888D01*
X8513039Y-11945888D02*
X8503515Y-11907793D01*
X8503515Y-11907793D02*
X8503515Y-11860174D01*
X8503515Y-11860174D02*
X8513039Y-11822079D01*
X8513039Y-11822079D02*
X8522563Y-11803031D01*
X8522563Y-11803031D02*
X8532087Y-11793508D01*
X8532087Y-11793508D02*
X8551134Y-11783984D01*
X8703515Y-11964936D02*
X8713039Y-11974460D01*
X8713039Y-11974460D02*
X8703515Y-11983984D01*
X8703515Y-11983984D02*
X8693991Y-11974460D01*
X8693991Y-11974460D02*
X8703515Y-11964936D01*
X8703515Y-11964936D02*
X8703515Y-11983984D01*
X8836848Y-11783984D02*
X8855896Y-11783984D01*
X8855896Y-11783984D02*
X8874944Y-11793508D01*
X8874944Y-11793508D02*
X8884468Y-11803031D01*
X8884468Y-11803031D02*
X8893991Y-11822079D01*
X8893991Y-11822079D02*
X8903515Y-11860174D01*
X8903515Y-11860174D02*
X8903515Y-11907793D01*
X8903515Y-11907793D02*
X8893991Y-11945888D01*
X8893991Y-11945888D02*
X8884468Y-11964936D01*
X8884468Y-11964936D02*
X8874944Y-11974460D01*
X8874944Y-11974460D02*
X8855896Y-11983984D01*
X8855896Y-11983984D02*
X8836848Y-11983984D01*
X8836848Y-11983984D02*
X8817801Y-11974460D01*
X8817801Y-11974460D02*
X8808277Y-11964936D01*
X8808277Y-11964936D02*
X8798753Y-11945888D01*
X8798753Y-11945888D02*
X8789229Y-11907793D01*
X8789229Y-11907793D02*
X8789229Y-11860174D01*
X8789229Y-11860174D02*
X8798753Y-11822079D01*
X8798753Y-11822079D02*
X8808277Y-11803031D01*
X8808277Y-11803031D02*
X8817801Y-11793508D01*
X8817801Y-11793508D02*
X8836848Y-11783984D01*
X9093991Y-11983984D02*
X8979706Y-11983984D01*
X9036848Y-11983984D02*
X9036848Y-11783984D01*
X9036848Y-11783984D02*
X9017801Y-11812555D01*
X9017801Y-11812555D02*
X8998753Y-11831603D01*
X8998753Y-11831603D02*
X8979706Y-11841127D01*
X9284468Y-11983984D02*
X9170182Y-11983984D01*
X9227325Y-11983984D02*
X9227325Y-11783984D01*
X9227325Y-11783984D02*
X9208277Y-11812555D01*
X9208277Y-11812555D02*
X9189229Y-11831603D01*
X9189229Y-11831603D02*
X9170182Y-11841127D01*
X9398753Y-11869698D02*
X9379706Y-11860174D01*
X9379706Y-11860174D02*
X9370182Y-11850650D01*
X9370182Y-11850650D02*
X9360658Y-11831603D01*
X9360658Y-11831603D02*
X9360658Y-11822079D01*
X9360658Y-11822079D02*
X9370182Y-11803031D01*
X9370182Y-11803031D02*
X9379706Y-11793508D01*
X9379706Y-11793508D02*
X9398753Y-11783984D01*
X9398753Y-11783984D02*
X9436849Y-11783984D01*
X9436849Y-11783984D02*
X9455896Y-11793508D01*
X9455896Y-11793508D02*
X9465420Y-11803031D01*
X9465420Y-11803031D02*
X9474944Y-11822079D01*
X9474944Y-11822079D02*
X9474944Y-11831603D01*
X9474944Y-11831603D02*
X9465420Y-11850650D01*
X9465420Y-11850650D02*
X9455896Y-11860174D01*
X9455896Y-11860174D02*
X9436849Y-11869698D01*
X9436849Y-11869698D02*
X9398753Y-11869698D01*
X9398753Y-11869698D02*
X9379706Y-11879222D01*
X9379706Y-11879222D02*
X9370182Y-11888746D01*
X9370182Y-11888746D02*
X9360658Y-11907793D01*
X9360658Y-11907793D02*
X9360658Y-11945888D01*
X9360658Y-11945888D02*
X9370182Y-11964936D01*
X9370182Y-11964936D02*
X9379706Y-11974460D01*
X9379706Y-11974460D02*
X9398753Y-11983984D01*
X9398753Y-11983984D02*
X9436849Y-11983984D01*
X9436849Y-11983984D02*
X9455896Y-11974460D01*
X9455896Y-11974460D02*
X9465420Y-11964936D01*
X9465420Y-11964936D02*
X9474944Y-11945888D01*
X9474944Y-11945888D02*
X9474944Y-11907793D01*
X9474944Y-11907793D02*
X9465420Y-11888746D01*
X9465420Y-11888746D02*
X9455896Y-11879222D01*
X9455896Y-11879222D02*
X9436849Y-11869698D01*
X9551134Y-11783984D02*
X9551134Y-11822079D01*
X9627325Y-11783984D02*
X9627325Y-11822079D01*
X9922563Y-12060174D02*
X9913039Y-12050650D01*
X9913039Y-12050650D02*
X9893991Y-12022079D01*
X9893991Y-12022079D02*
X9884468Y-12003031D01*
X9884468Y-12003031D02*
X9874944Y-11974460D01*
X9874944Y-11974460D02*
X9865420Y-11926841D01*
X9865420Y-11926841D02*
X9865420Y-11888746D01*
X9865420Y-11888746D02*
X9874944Y-11841127D01*
X9874944Y-11841127D02*
X9884468Y-11812555D01*
X9884468Y-11812555D02*
X9893991Y-11793508D01*
X9893991Y-11793508D02*
X9913039Y-11764936D01*
X9913039Y-11764936D02*
X9922563Y-11755412D01*
X9979706Y-11783984D02*
X10113039Y-11783984D01*
X10113039Y-11783984D02*
X10027325Y-11983984D01*
X10170182Y-11783984D02*
X10293991Y-11783984D01*
X10293991Y-11783984D02*
X10227325Y-11860174D01*
X10227325Y-11860174D02*
X10255896Y-11860174D01*
X10255896Y-11860174D02*
X10274944Y-11869698D01*
X10274944Y-11869698D02*
X10284468Y-11879222D01*
X10284468Y-11879222D02*
X10293991Y-11898269D01*
X10293991Y-11898269D02*
X10293991Y-11945888D01*
X10293991Y-11945888D02*
X10284468Y-11964936D01*
X10284468Y-11964936D02*
X10274944Y-11974460D01*
X10274944Y-11974460D02*
X10255896Y-11983984D01*
X10255896Y-11983984D02*
X10198753Y-11983984D01*
X10198753Y-11983984D02*
X10179706Y-11974460D01*
X10179706Y-11974460D02*
X10170182Y-11964936D01*
X10532087Y-11983984D02*
X10532087Y-11783984D01*
X10617801Y-11983984D02*
X10617801Y-11879222D01*
X10617801Y-11879222D02*
X10608277Y-11860174D01*
X10608277Y-11860174D02*
X10589230Y-11850650D01*
X10589230Y-11850650D02*
X10560658Y-11850650D01*
X10560658Y-11850650D02*
X10541611Y-11860174D01*
X10541611Y-11860174D02*
X10532087Y-11869698D01*
X10741611Y-11983984D02*
X10722563Y-11974460D01*
X10722563Y-11974460D02*
X10713039Y-11964936D01*
X10713039Y-11964936D02*
X10703515Y-11945888D01*
X10703515Y-11945888D02*
X10703515Y-11888746D01*
X10703515Y-11888746D02*
X10713039Y-11869698D01*
X10713039Y-11869698D02*
X10722563Y-11860174D01*
X10722563Y-11860174D02*
X10741611Y-11850650D01*
X10741611Y-11850650D02*
X10770182Y-11850650D01*
X10770182Y-11850650D02*
X10789230Y-11860174D01*
X10789230Y-11860174D02*
X10798753Y-11869698D01*
X10798753Y-11869698D02*
X10808277Y-11888746D01*
X10808277Y-11888746D02*
X10808277Y-11945888D01*
X10808277Y-11945888D02*
X10798753Y-11964936D01*
X10798753Y-11964936D02*
X10789230Y-11974460D01*
X10789230Y-11974460D02*
X10770182Y-11983984D01*
X10770182Y-11983984D02*
X10741611Y-11983984D01*
X10922563Y-11983984D02*
X10903515Y-11974460D01*
X10903515Y-11974460D02*
X10893992Y-11955412D01*
X10893992Y-11955412D02*
X10893992Y-11783984D01*
X11074944Y-11974460D02*
X11055896Y-11983984D01*
X11055896Y-11983984D02*
X11017801Y-11983984D01*
X11017801Y-11983984D02*
X10998753Y-11974460D01*
X10998753Y-11974460D02*
X10989230Y-11955412D01*
X10989230Y-11955412D02*
X10989230Y-11879222D01*
X10989230Y-11879222D02*
X10998753Y-11860174D01*
X10998753Y-11860174D02*
X11017801Y-11850650D01*
X11017801Y-11850650D02*
X11055896Y-11850650D01*
X11055896Y-11850650D02*
X11074944Y-11860174D01*
X11074944Y-11860174D02*
X11084468Y-11879222D01*
X11084468Y-11879222D02*
X11084468Y-11898269D01*
X11084468Y-11898269D02*
X10989230Y-11917317D01*
X11160658Y-11974460D02*
X11179706Y-11983984D01*
X11179706Y-11983984D02*
X11217801Y-11983984D01*
X11217801Y-11983984D02*
X11236849Y-11974460D01*
X11236849Y-11974460D02*
X11246372Y-11955412D01*
X11246372Y-11955412D02*
X11246372Y-11945888D01*
X11246372Y-11945888D02*
X11236849Y-11926841D01*
X11236849Y-11926841D02*
X11217801Y-11917317D01*
X11217801Y-11917317D02*
X11189230Y-11917317D01*
X11189230Y-11917317D02*
X11170182Y-11907793D01*
X11170182Y-11907793D02*
X11160658Y-11888746D01*
X11160658Y-11888746D02*
X11160658Y-11879222D01*
X11160658Y-11879222D02*
X11170182Y-11860174D01*
X11170182Y-11860174D02*
X11189230Y-11850650D01*
X11189230Y-11850650D02*
X11217801Y-11850650D01*
X11217801Y-11850650D02*
X11236849Y-11860174D01*
X11313039Y-12060174D02*
X11322563Y-12050650D01*
X11322563Y-12050650D02*
X11341611Y-12022079D01*
X11341611Y-12022079D02*
X11351134Y-12003031D01*
X11351134Y-12003031D02*
X11360658Y-11974460D01*
X11360658Y-11974460D02*
X11370182Y-11926841D01*
X11370182Y-11926841D02*
X11370182Y-11888746D01*
X11370182Y-11888746D02*
X11360658Y-11841127D01*
X11360658Y-11841127D02*
X11351134Y-11812555D01*
X11351134Y-11812555D02*
X11341611Y-11793508D01*
X11341611Y-11793508D02*
X11322563Y-11764936D01*
X11322563Y-11764936D02*
X11313039Y-11755412D01*
D12*
X6347500Y-12156500D02*
G75*
G02*
X6247500Y-12156500I-50000J0D01*
G01*
X6247500Y-12156500D02*
G75*
G02*
X6347500Y-12156500I50000J0D01*
G01*
D11*
X6713039Y-12247984D02*
X6598753Y-12247984D01*
X6655896Y-12247984D02*
X6655896Y-12047984D01*
X6655896Y-12047984D02*
X6636848Y-12076555D01*
X6636848Y-12076555D02*
X6617801Y-12095603D01*
X6617801Y-12095603D02*
X6598753Y-12105127D01*
X6798753Y-12228936D02*
X6808277Y-12238460D01*
X6808277Y-12238460D02*
X6798753Y-12247984D01*
X6798753Y-12247984D02*
X6789229Y-12238460D01*
X6789229Y-12238460D02*
X6798753Y-12228936D01*
X6798753Y-12228936D02*
X6798753Y-12247984D01*
X6932086Y-12047984D02*
X6951134Y-12047984D01*
X6951134Y-12047984D02*
X6970182Y-12057508D01*
X6970182Y-12057508D02*
X6979705Y-12067031D01*
X6979705Y-12067031D02*
X6989229Y-12086079D01*
X6989229Y-12086079D02*
X6998753Y-12124174D01*
X6998753Y-12124174D02*
X6998753Y-12171793D01*
X6998753Y-12171793D02*
X6989229Y-12209888D01*
X6989229Y-12209888D02*
X6979705Y-12228936D01*
X6979705Y-12228936D02*
X6970182Y-12238460D01*
X6970182Y-12238460D02*
X6951134Y-12247984D01*
X6951134Y-12247984D02*
X6932086Y-12247984D01*
X6932086Y-12247984D02*
X6913039Y-12238460D01*
X6913039Y-12238460D02*
X6903515Y-12228936D01*
X6903515Y-12228936D02*
X6893991Y-12209888D01*
X6893991Y-12209888D02*
X6884467Y-12171793D01*
X6884467Y-12171793D02*
X6884467Y-12124174D01*
X6884467Y-12124174D02*
X6893991Y-12086079D01*
X6893991Y-12086079D02*
X6903515Y-12067031D01*
X6903515Y-12067031D02*
X6913039Y-12057508D01*
X6913039Y-12057508D02*
X6932086Y-12047984D01*
X7122562Y-12047984D02*
X7141610Y-12047984D01*
X7141610Y-12047984D02*
X7160658Y-12057508D01*
X7160658Y-12057508D02*
X7170182Y-12067031D01*
X7170182Y-12067031D02*
X7179705Y-12086079D01*
X7179705Y-12086079D02*
X7189229Y-12124174D01*
X7189229Y-12124174D02*
X7189229Y-12171793D01*
X7189229Y-12171793D02*
X7179705Y-12209888D01*
X7179705Y-12209888D02*
X7170182Y-12228936D01*
X7170182Y-12228936D02*
X7160658Y-12238460D01*
X7160658Y-12238460D02*
X7141610Y-12247984D01*
X7141610Y-12247984D02*
X7122562Y-12247984D01*
X7122562Y-12247984D02*
X7103515Y-12238460D01*
X7103515Y-12238460D02*
X7093991Y-12228936D01*
X7093991Y-12228936D02*
X7084467Y-12209888D01*
X7084467Y-12209888D02*
X7074943Y-12171793D01*
X7074943Y-12171793D02*
X7074943Y-12124174D01*
X7074943Y-12124174D02*
X7084467Y-12086079D01*
X7084467Y-12086079D02*
X7093991Y-12067031D01*
X7093991Y-12067031D02*
X7103515Y-12057508D01*
X7103515Y-12057508D02*
X7122562Y-12047984D01*
X7313039Y-12047984D02*
X7332086Y-12047984D01*
X7332086Y-12047984D02*
X7351134Y-12057508D01*
X7351134Y-12057508D02*
X7360658Y-12067031D01*
X7360658Y-12067031D02*
X7370182Y-12086079D01*
X7370182Y-12086079D02*
X7379705Y-12124174D01*
X7379705Y-12124174D02*
X7379705Y-12171793D01*
X7379705Y-12171793D02*
X7370182Y-12209888D01*
X7370182Y-12209888D02*
X7360658Y-12228936D01*
X7360658Y-12228936D02*
X7351134Y-12238460D01*
X7351134Y-12238460D02*
X7332086Y-12247984D01*
X7332086Y-12247984D02*
X7313039Y-12247984D01*
X7313039Y-12247984D02*
X7293991Y-12238460D01*
X7293991Y-12238460D02*
X7284467Y-12228936D01*
X7284467Y-12228936D02*
X7274943Y-12209888D01*
X7274943Y-12209888D02*
X7265420Y-12171793D01*
X7265420Y-12171793D02*
X7265420Y-12124174D01*
X7265420Y-12124174D02*
X7274943Y-12086079D01*
X7274943Y-12086079D02*
X7284467Y-12067031D01*
X7284467Y-12067031D02*
X7293991Y-12057508D01*
X7293991Y-12057508D02*
X7313039Y-12047984D01*
X7465420Y-12247984D02*
X7465420Y-12114650D01*
X7465420Y-12133698D02*
X7474943Y-12124174D01*
X7474943Y-12124174D02*
X7493991Y-12114650D01*
X7493991Y-12114650D02*
X7522563Y-12114650D01*
X7522563Y-12114650D02*
X7541610Y-12124174D01*
X7541610Y-12124174D02*
X7551134Y-12143222D01*
X7551134Y-12143222D02*
X7551134Y-12247984D01*
X7551134Y-12143222D02*
X7560658Y-12124174D01*
X7560658Y-12124174D02*
X7579705Y-12114650D01*
X7579705Y-12114650D02*
X7608277Y-12114650D01*
X7608277Y-12114650D02*
X7627324Y-12124174D01*
X7627324Y-12124174D02*
X7636848Y-12143222D01*
X7636848Y-12143222D02*
X7636848Y-12247984D01*
X7732086Y-12247984D02*
X7732086Y-12114650D01*
X7732086Y-12133698D02*
X7741610Y-12124174D01*
X7741610Y-12124174D02*
X7760658Y-12114650D01*
X7760658Y-12114650D02*
X7789229Y-12114650D01*
X7789229Y-12114650D02*
X7808277Y-12124174D01*
X7808277Y-12124174D02*
X7817801Y-12143222D01*
X7817801Y-12143222D02*
X7817801Y-12247984D01*
X7817801Y-12143222D02*
X7827324Y-12124174D01*
X7827324Y-12124174D02*
X7846372Y-12114650D01*
X7846372Y-12114650D02*
X7874943Y-12114650D01*
X7874943Y-12114650D02*
X7893991Y-12124174D01*
X7893991Y-12124174D02*
X7903515Y-12143222D01*
X7903515Y-12143222D02*
X7903515Y-12247984D01*
X8293991Y-12038460D02*
X8122563Y-12295603D01*
X8551134Y-12047984D02*
X8570182Y-12047984D01*
X8570182Y-12047984D02*
X8589229Y-12057508D01*
X8589229Y-12057508D02*
X8598753Y-12067031D01*
X8598753Y-12067031D02*
X8608277Y-12086079D01*
X8608277Y-12086079D02*
X8617801Y-12124174D01*
X8617801Y-12124174D02*
X8617801Y-12171793D01*
X8617801Y-12171793D02*
X8608277Y-12209888D01*
X8608277Y-12209888D02*
X8598753Y-12228936D01*
X8598753Y-12228936D02*
X8589229Y-12238460D01*
X8589229Y-12238460D02*
X8570182Y-12247984D01*
X8570182Y-12247984D02*
X8551134Y-12247984D01*
X8551134Y-12247984D02*
X8532087Y-12238460D01*
X8532087Y-12238460D02*
X8522563Y-12228936D01*
X8522563Y-12228936D02*
X8513039Y-12209888D01*
X8513039Y-12209888D02*
X8503515Y-12171793D01*
X8503515Y-12171793D02*
X8503515Y-12124174D01*
X8503515Y-12124174D02*
X8513039Y-12086079D01*
X8513039Y-12086079D02*
X8522563Y-12067031D01*
X8522563Y-12067031D02*
X8532087Y-12057508D01*
X8532087Y-12057508D02*
X8551134Y-12047984D01*
X8703515Y-12228936D02*
X8713039Y-12238460D01*
X8713039Y-12238460D02*
X8703515Y-12247984D01*
X8703515Y-12247984D02*
X8693991Y-12238460D01*
X8693991Y-12238460D02*
X8703515Y-12228936D01*
X8703515Y-12228936D02*
X8703515Y-12247984D01*
X8836848Y-12047984D02*
X8855896Y-12047984D01*
X8855896Y-12047984D02*
X8874944Y-12057508D01*
X8874944Y-12057508D02*
X8884468Y-12067031D01*
X8884468Y-12067031D02*
X8893991Y-12086079D01*
X8893991Y-12086079D02*
X8903515Y-12124174D01*
X8903515Y-12124174D02*
X8903515Y-12171793D01*
X8903515Y-12171793D02*
X8893991Y-12209888D01*
X8893991Y-12209888D02*
X8884468Y-12228936D01*
X8884468Y-12228936D02*
X8874944Y-12238460D01*
X8874944Y-12238460D02*
X8855896Y-12247984D01*
X8855896Y-12247984D02*
X8836848Y-12247984D01*
X8836848Y-12247984D02*
X8817801Y-12238460D01*
X8817801Y-12238460D02*
X8808277Y-12228936D01*
X8808277Y-12228936D02*
X8798753Y-12209888D01*
X8798753Y-12209888D02*
X8789229Y-12171793D01*
X8789229Y-12171793D02*
X8789229Y-12124174D01*
X8789229Y-12124174D02*
X8798753Y-12086079D01*
X8798753Y-12086079D02*
X8808277Y-12067031D01*
X8808277Y-12067031D02*
X8817801Y-12057508D01*
X8817801Y-12057508D02*
X8836848Y-12047984D01*
X8970182Y-12047984D02*
X9093991Y-12047984D01*
X9093991Y-12047984D02*
X9027325Y-12124174D01*
X9027325Y-12124174D02*
X9055896Y-12124174D01*
X9055896Y-12124174D02*
X9074944Y-12133698D01*
X9074944Y-12133698D02*
X9084468Y-12143222D01*
X9084468Y-12143222D02*
X9093991Y-12162269D01*
X9093991Y-12162269D02*
X9093991Y-12209888D01*
X9093991Y-12209888D02*
X9084468Y-12228936D01*
X9084468Y-12228936D02*
X9074944Y-12238460D01*
X9074944Y-12238460D02*
X9055896Y-12247984D01*
X9055896Y-12247984D02*
X8998753Y-12247984D01*
X8998753Y-12247984D02*
X8979706Y-12238460D01*
X8979706Y-12238460D02*
X8970182Y-12228936D01*
X9189229Y-12247984D02*
X9227325Y-12247984D01*
X9227325Y-12247984D02*
X9246372Y-12238460D01*
X9246372Y-12238460D02*
X9255896Y-12228936D01*
X9255896Y-12228936D02*
X9274944Y-12200365D01*
X9274944Y-12200365D02*
X9284468Y-12162269D01*
X9284468Y-12162269D02*
X9284468Y-12086079D01*
X9284468Y-12086079D02*
X9274944Y-12067031D01*
X9274944Y-12067031D02*
X9265420Y-12057508D01*
X9265420Y-12057508D02*
X9246372Y-12047984D01*
X9246372Y-12047984D02*
X9208277Y-12047984D01*
X9208277Y-12047984D02*
X9189229Y-12057508D01*
X9189229Y-12057508D02*
X9179706Y-12067031D01*
X9179706Y-12067031D02*
X9170182Y-12086079D01*
X9170182Y-12086079D02*
X9170182Y-12133698D01*
X9170182Y-12133698D02*
X9179706Y-12152746D01*
X9179706Y-12152746D02*
X9189229Y-12162269D01*
X9189229Y-12162269D02*
X9208277Y-12171793D01*
X9208277Y-12171793D02*
X9246372Y-12171793D01*
X9246372Y-12171793D02*
X9265420Y-12162269D01*
X9265420Y-12162269D02*
X9274944Y-12152746D01*
X9274944Y-12152746D02*
X9284468Y-12133698D01*
X9455896Y-12114650D02*
X9455896Y-12247984D01*
X9408277Y-12038460D02*
X9360658Y-12181317D01*
X9360658Y-12181317D02*
X9484468Y-12181317D01*
X9551134Y-12047984D02*
X9551134Y-12086079D01*
X9627325Y-12047984D02*
X9627325Y-12086079D01*
X9922563Y-12324174D02*
X9913039Y-12314650D01*
X9913039Y-12314650D02*
X9893991Y-12286079D01*
X9893991Y-12286079D02*
X9884468Y-12267031D01*
X9884468Y-12267031D02*
X9874944Y-12238460D01*
X9874944Y-12238460D02*
X9865420Y-12190841D01*
X9865420Y-12190841D02*
X9865420Y-12152746D01*
X9865420Y-12152746D02*
X9874944Y-12105127D01*
X9874944Y-12105127D02*
X9884468Y-12076555D01*
X9884468Y-12076555D02*
X9893991Y-12057508D01*
X9893991Y-12057508D02*
X9913039Y-12028936D01*
X9913039Y-12028936D02*
X9922563Y-12019412D01*
X10027325Y-12133698D02*
X10008277Y-12124174D01*
X10008277Y-12124174D02*
X9998753Y-12114650D01*
X9998753Y-12114650D02*
X9989230Y-12095603D01*
X9989230Y-12095603D02*
X9989230Y-12086079D01*
X9989230Y-12086079D02*
X9998753Y-12067031D01*
X9998753Y-12067031D02*
X10008277Y-12057508D01*
X10008277Y-12057508D02*
X10027325Y-12047984D01*
X10027325Y-12047984D02*
X10065420Y-12047984D01*
X10065420Y-12047984D02*
X10084468Y-12057508D01*
X10084468Y-12057508D02*
X10093991Y-12067031D01*
X10093991Y-12067031D02*
X10103515Y-12086079D01*
X10103515Y-12086079D02*
X10103515Y-12095603D01*
X10103515Y-12095603D02*
X10093991Y-12114650D01*
X10093991Y-12114650D02*
X10084468Y-12124174D01*
X10084468Y-12124174D02*
X10065420Y-12133698D01*
X10065420Y-12133698D02*
X10027325Y-12133698D01*
X10027325Y-12133698D02*
X10008277Y-12143222D01*
X10008277Y-12143222D02*
X9998753Y-12152746D01*
X9998753Y-12152746D02*
X9989230Y-12171793D01*
X9989230Y-12171793D02*
X9989230Y-12209888D01*
X9989230Y-12209888D02*
X9998753Y-12228936D01*
X9998753Y-12228936D02*
X10008277Y-12238460D01*
X10008277Y-12238460D02*
X10027325Y-12247984D01*
X10027325Y-12247984D02*
X10065420Y-12247984D01*
X10065420Y-12247984D02*
X10084468Y-12238460D01*
X10084468Y-12238460D02*
X10093991Y-12228936D01*
X10093991Y-12228936D02*
X10103515Y-12209888D01*
X10103515Y-12209888D02*
X10103515Y-12171793D01*
X10103515Y-12171793D02*
X10093991Y-12152746D01*
X10093991Y-12152746D02*
X10084468Y-12143222D01*
X10084468Y-12143222D02*
X10065420Y-12133698D01*
X10341611Y-12247984D02*
X10341611Y-12047984D01*
X10427325Y-12247984D02*
X10427325Y-12143222D01*
X10427325Y-12143222D02*
X10417801Y-12124174D01*
X10417801Y-12124174D02*
X10398753Y-12114650D01*
X10398753Y-12114650D02*
X10370182Y-12114650D01*
X10370182Y-12114650D02*
X10351134Y-12124174D01*
X10351134Y-12124174D02*
X10341611Y-12133698D01*
X10551134Y-12247984D02*
X10532087Y-12238460D01*
X10532087Y-12238460D02*
X10522563Y-12228936D01*
X10522563Y-12228936D02*
X10513039Y-12209888D01*
X10513039Y-12209888D02*
X10513039Y-12152746D01*
X10513039Y-12152746D02*
X10522563Y-12133698D01*
X10522563Y-12133698D02*
X10532087Y-12124174D01*
X10532087Y-12124174D02*
X10551134Y-12114650D01*
X10551134Y-12114650D02*
X10579706Y-12114650D01*
X10579706Y-12114650D02*
X10598753Y-12124174D01*
X10598753Y-12124174D02*
X10608277Y-12133698D01*
X10608277Y-12133698D02*
X10617801Y-12152746D01*
X10617801Y-12152746D02*
X10617801Y-12209888D01*
X10617801Y-12209888D02*
X10608277Y-12228936D01*
X10608277Y-12228936D02*
X10598753Y-12238460D01*
X10598753Y-12238460D02*
X10579706Y-12247984D01*
X10579706Y-12247984D02*
X10551134Y-12247984D01*
X10732087Y-12247984D02*
X10713039Y-12238460D01*
X10713039Y-12238460D02*
X10703515Y-12219412D01*
X10703515Y-12219412D02*
X10703515Y-12047984D01*
X10884468Y-12238460D02*
X10865420Y-12247984D01*
X10865420Y-12247984D02*
X10827325Y-12247984D01*
X10827325Y-12247984D02*
X10808277Y-12238460D01*
X10808277Y-12238460D02*
X10798753Y-12219412D01*
X10798753Y-12219412D02*
X10798753Y-12143222D01*
X10798753Y-12143222D02*
X10808277Y-12124174D01*
X10808277Y-12124174D02*
X10827325Y-12114650D01*
X10827325Y-12114650D02*
X10865420Y-12114650D01*
X10865420Y-12114650D02*
X10884468Y-12124174D01*
X10884468Y-12124174D02*
X10893992Y-12143222D01*
X10893992Y-12143222D02*
X10893992Y-12162269D01*
X10893992Y-12162269D02*
X10798753Y-12181317D01*
X10970182Y-12238460D02*
X10989230Y-12247984D01*
X10989230Y-12247984D02*
X11027325Y-12247984D01*
X11027325Y-12247984D02*
X11046373Y-12238460D01*
X11046373Y-12238460D02*
X11055896Y-12219412D01*
X11055896Y-12219412D02*
X11055896Y-12209888D01*
X11055896Y-12209888D02*
X11046373Y-12190841D01*
X11046373Y-12190841D02*
X11027325Y-12181317D01*
X11027325Y-12181317D02*
X10998753Y-12181317D01*
X10998753Y-12181317D02*
X10979706Y-12171793D01*
X10979706Y-12171793D02*
X10970182Y-12152746D01*
X10970182Y-12152746D02*
X10970182Y-12143222D01*
X10970182Y-12143222D02*
X10979706Y-12124174D01*
X10979706Y-12124174D02*
X10998753Y-12114650D01*
X10998753Y-12114650D02*
X11027325Y-12114650D01*
X11027325Y-12114650D02*
X11046373Y-12124174D01*
X11122563Y-12324174D02*
X11132087Y-12314650D01*
X11132087Y-12314650D02*
X11151134Y-12286079D01*
X11151134Y-12286079D02*
X11160658Y-12267031D01*
X11160658Y-12267031D02*
X11170182Y-12238460D01*
X11170182Y-12238460D02*
X11179706Y-12190841D01*
X11179706Y-12190841D02*
X11179706Y-12152746D01*
X11179706Y-12152746D02*
X11170182Y-12105127D01*
X11170182Y-12105127D02*
X11160658Y-12076555D01*
X11160658Y-12076555D02*
X11151134Y-12057508D01*
X11151134Y-12057508D02*
X11132087Y-12028936D01*
X11132087Y-12028936D02*
X11122563Y-12019412D01*
M02*
